# xmcd CD database file
#
# Track frame offsets:
#	150
#	17012
#	35467
#	54198
#	72339
#
# Disc length: 1187 seconds
#
# Revision: 0
# Processed by: cddbd v1.5.2PL0 Copyright (c) Steve Scherf et al.
# Submitted via: CDex 1.51
#
DISCID=3704a105
DTITLE=Tuesday Microgrooves - Session Two (Winter 07 08)
DYEAR=2008
DGENRE=Jazz
TTITLE0=Not Yet
TTITLE1=Summer Rain
TTITLE2=What are you supposed to do
TTITLE3=I lost a friend (but won the war)
TTITLE4=When I opened pandoras box (instrumental version)
EXTD=YEAR: 2008
EXTT0=
EXTT1=
EXTT2=
EXTT3=
EXTT4=
PLAYORDER=
